<svg width="46" height="46" viewBox="0 0 46 46" fill="none" xmlns="http://www.w3.org/2000/svg">
<path d="M0.5 23C0.5 18.5499 1.8196 14.1998 4.29193 10.4997C6.76427 6.79957 10.2783 3.91569 14.3896 2.21272C18.501 0.509749 23.025 0.0641738 27.3895 0.932341C31.7541 1.80051 35.7632 3.94343 38.9099 7.09011C42.0566 10.2368 44.1995 14.2459 45.0677 18.6105C45.9358 22.9751 45.4903 27.4991 43.7873 31.6104C42.0843 35.7217 39.2004 39.2357 35.5003 41.7081C31.8002 44.1804 27.4501 45.5 23 45.5C17.0326 45.5 11.3097 43.1295 7.0901 38.9099C2.87053 34.6903 0.5 28.9674 0.5 23ZM42.5 23C42.5 19.1433 41.3563 15.3731 39.2137 12.1664C37.071 8.95963 34.0255 6.46027 30.4623 4.98436C26.8992 3.50845 22.9784 3.12229 19.1957 3.8747C15.4131 4.62711 11.9385 6.4843 9.21142 9.21143C6.48429 11.9386 4.6271 15.4131 3.87469 19.1957C3.12228 22.9784 3.50844 26.8992 4.98435 30.4623C6.46026 34.0255 8.95962 37.071 12.1664 39.2137C15.3731 41.3564 19.1433 42.5 23 42.5C28.1717 42.5 33.1316 40.4456 36.7886 36.7886C40.4455 33.1316 42.5 28.1717 42.5 23Z" fill="#9E9171"/>
<path d="M17.195 31.385L25.565 23L17.195 14.615C16.9156 14.334 16.7588 13.9538 16.7588 13.5575C16.7588 13.1613 16.9156 12.7811 17.195 12.5C17.476 12.2207 17.8562 12.0638 18.2525 12.0638C18.6488 12.0638 19.0289 12.2207 19.31 12.5L28.85 22.04C29.1028 22.2956 29.2446 22.6406 29.2446 23C29.2446 23.3595 29.1028 23.7045 28.85 23.96L19.31 33.5C19.0289 33.7794 18.6488 33.9362 18.2525 33.9362C17.8562 33.9362 17.476 33.7794 17.195 33.5C16.9156 33.219 16.7588 32.8388 16.7588 32.4425C16.7588 32.0462 16.9156 31.6661 17.195 31.385Z" fill="#9E9171"/>
</svg>
